<svg xmlns="http://www.w3.org/2000/svg" xmlns:xlink="http://www.w3.org/1999/xlink" width="2826" height="2448" viewBox="0 0 2826 2448">
  <defs>
    <linearGradient id="linear-gradient" x1="0.5" y1="0.828" x2="0.5" y2="0.265" gradientUnits="objectBoundingBox">
      <stop offset="0" stop-color="#fff"/>
      <stop offset="1" stop-color="#f4f5fa"/>
    </linearGradient>
    <filter id="Rectangle_117" x="0" y="713" width="2826" height="647" filterUnits="userSpaceOnUse">
      <feOffset dy="1" input="SourceAlpha"/>
      <feGaussianBlur stdDeviation="3" result="blur"/>
      <feFlood flood-opacity="0.102"/>
      <feComposite operator="in" in2="blur"/>
      <feComposite in="SourceGraphic"/>
    </filter>
    <filter id="Rectangle_116" x="0" y="0" width="2826" height="647" filterUnits="userSpaceOnUse">
      <feOffset dy="1" input="SourceAlpha"/>
      <feGaussianBlur stdDeviation="3" result="blur-2"/>
      <feFlood flood-opacity="0.102"/>
      <feComposite operator="in" in2="blur-2"/>
      <feComposite in="SourceGraphic"/>
    </filter>
    <filter id="Rectangle_138" x="0" y="1426" width="2826" height="647" filterUnits="userSpaceOnUse">
      <feOffset dy="1" input="SourceAlpha"/>
      <feGaussianBlur stdDeviation="3" result="blur-3"/>
      <feFlood flood-opacity="0.102"/>
      <feComposite operator="in" in2="blur-3"/>
      <feComposite in="SourceGraphic"/>
    </filter>
  </defs>
  <g id="calendar" transform="translate(-1100 -1429)">
    <rect id="Rectangle_118" data-name="Rectangle 118" width="2808" height="301" rx="20" transform="translate(1109 3576)" fill="url(#linear-gradient)"/>
    <g id="Group_92" data-name="Group 92" transform="translate(1109 2150.016)">
      <g transform="matrix(1, 0, 0, 1, -9, -721.02)" filter="url(#Rectangle_117)">
        <rect id="Rectangle_117-2" data-name="Rectangle 117" width="2808" height="629" rx="20" transform="translate(9 721)" fill="#f4f5fa"/>
      </g>
      <text id="Tuesday" transform="translate(206 267.984)" fill="#42315c" font-size="110" font-family="OpenSans, Open Sans"><tspan x="0" y="0">Tuesday</tspan></text>
      <text id="Sustainability" transform="translate(1225 270.984)" fill="#42315c" font-size="134" font-family="OpenSans-Semibold, Open Sans" font-weight="600"><tspan x="0" y="0">Sustainability</tspan></text>
      <text id="Insight-Session" transform="translate(1225 468.984)" fill="#42315c" font-size="110" font-family="OpenSans, Open Sans"><tspan x="0" y="0">Insight-Session</tspan></text>
      <g id="plant" transform="matrix(0.899, 0.438, -0.438, 0.899, 2440.037, 149.722)">
        <path id="Path_37" data-name="Path 37" d="M177.672,208.638a100.1,100.1,0,0,0,15.65-12.771A98.853,98.853,0,0,0,222.452,125.5c0-67.884-67-107.908-120.785-119.886-28.248-6.29-60-7.3-94.371-3.005A8.329,8.329,0,0,0,8.329,19.2c37.842,0,76.284,23.008,102.5,50.386a193.951,193.951,0,0,1,53.933,132.2,8.328,8.328,0,0,0,12.911,6.85Z" transform="translate(0.001)" fill="#c61928"/>
        <path id="Path_38" data-name="Path 38" d="M8.329,90.943a8.329,8.329,0,0,0,8.329-8.329V8.329A8.329,8.329,0,0,0,0,8.329V82.614A8.329,8.329,0,0,0,8.329,90.943Z" transform="translate(164.777 193.345)" fill="#ff494f"/>
        <path id="Path_39" data-name="Path 39" d="M.33,6.011A8.328,8.328,0,0,1,8.329,0c38.425,0,81.24,20.757,114.53,55.523a210.553,210.553,0,0,1,58.559,143.512c0,.018,0,.036,0,.053l.018.039v4.352q-1.854,1.35-3.761,2.613A99.663,99.663,0,0,1,52.59,193.321c-29.335-29.335-23.25-69.752-21.246-92.434,3.061-34.628,5.7-64.534-27.468-85.52A8.327,8.327,0,0,1,.33,6.011Z" transform="translate(0 2.545)" fill="#ff494f"/>
        <path id="Path_59" data-name="Path 59" d="M52.719.036S35.851-1.83,15.476,21.153.706,66.8.706,66.8" transform="translate(46.016 177.579) rotate(-76)" fill="none" stroke="#fff" stroke-linecap="round" stroke-width="1.5"/>
      </g>
    </g>
    <g id="Group_91" data-name="Group 91" transform="translate(1109 1437)">
      <g transform="matrix(1, 0, 0, 1, -9, -8)" filter="url(#Rectangle_116)">
        <rect id="Rectangle_116-2" data-name="Rectangle 116" width="2808" height="629" rx="20" transform="translate(9 8)" fill="#f4f5fa"/>
      </g>
      <text id="Monday" transform="translate(206 280)" fill="#42315c" font-size="110" font-family="OpenSans, Open Sans"><tspan x="0" y="0">Monday</tspan></text>
      <text id="Smart_Home" data-name="Smart Home" transform="translate(1225 277)" fill="#42315c" font-size="134" font-family="OpenSans-Semibold, Open Sans" font-weight="600"><tspan x="0" y="0">Smart Home</tspan></text>
      <text id="Workshop" transform="translate(1225 469)" fill="#42315c" font-size="110" font-family="OpenSans, Open Sans"><tspan x="0" y="0">Workshop</tspan></text>
      <g id="house" transform="translate(2350.725 183.824)">
        <path id="Union_10" data-name="Union 10" d="M136.666,258.376H41.423a7.993,7.993,0,0,1-7.994-7.993V139.05H13.954a13.938,13.938,0,0,1-9.389-24.24L126.514,3.692A13.417,13.417,0,0,1,137.843.171a13.928,13.928,0,0,1,7.436,3.512l.011.009c5.97,4.971,121.948,111.118,121.948,111.118v0a13.937,13.937,0,0,1-9.389,24.239H238.369V250.383a7.993,7.993,0,0,1-7.993,7.993Z" fill="#ff494f"/>
        <path id="Subtraction_4" data-name="Subtraction 4" d="M38.2,212.159H0V0c33.55,30.606,73.375,67.053,75.054,68.589a13.938,13.938,0,0,1-9.384,24.244H46.192V204.166A8,8,0,0,1,38.2,212.159Z" transform="translate(192.177 46.219)" fill="#c61928"/>
        <rect id="Rectangle_141" data-name="Rectangle 141" width="8.356" height="133.691" rx="1" transform="translate(127.75 23.122) rotate(47.5)" fill="#fff"/>
      </g>
    </g>
    <g id="Group_93" data-name="Group 93" transform="translate(1109 2863.032)">
      <g transform="matrix(1, 0, 0, 1, -9, -1434.03)" filter="url(#Rectangle_138)">
        <rect id="Rectangle_138-2" data-name="Rectangle 138" width="2808" height="629" rx="20" transform="translate(9 1434)" fill="#f4f5fa"/>
      </g>
      <text id="Wednesday" transform="translate(206 279.968)" fill="#42315c" font-size="110" font-family="OpenSans, Open Sans"><tspan x="0" y="0">Wednesday</tspan></text>
      <text id="New_Work" data-name="New Work" transform="translate(1225 275.968)" fill="#42315c" font-size="133" font-family="OpenSans-Semibold, Open Sans" font-weight="600"><tspan x="0" y="0">New Work</tspan></text>
      <text id="Insight-Session-2" data-name="Insight-Session" transform="translate(1225 468.968)" fill="#42315c" font-size="110" font-family="OpenSans, Open Sans"><tspan x="0" y="0">Insight-Session</tspan></text>
      <g id="idea" transform="translate(2375.474 155.631)">
        <g id="idea-2" data-name="idea">
          <path id="Union_9" data-name="Union 9" d="M102.187,334.568h0a49.258,49.258,0,0,1-49.2-49.2V277.8h0V255.088h0V232.381h0v-.69c0-21.592-8.57-42.313-24.133-58.345A102.272,102.272,0,0,1,100.713.005c.492-.007.981,0,1.472,0h0A102.18,102.18,0,0,1,175.134,173.74a82.3,82.3,0,0,0-23.746,57.946v23.4h0V277.8h0v7.569a49.258,49.258,0,0,1-49.2,49.2h0Z" transform="translate(0)" fill="#ff494f"/>
        </g>
        <path id="Subtraction_3" data-name="Subtraction 3" d="M0,323.581V0A100.921,100.921,0,0,1,24.295,9.938a102.859,102.859,0,0,1,21.2,16.093A101.458,101.458,0,0,1,75.936,98.8,101.6,101.6,0,0,1,46.7,170.357,82.3,82.3,0,0,0,22.949,228.3v53.68A49.186,49.186,0,0,1,21.3,294.632a48.944,48.944,0,0,1-4.659,11.434A49.674,49.674,0,0,1,0,323.58Z" transform="translate(128.438 3.382)" fill="#c61928"/>
        <g id="Path_58" data-name="Path 58" transform="translate(51.045 228.71)" fill="#fff">
          <path d="M 2.458008289337158 10.62694072723389 L 2.458008289337158 0.4975102543830872 L 99.85458374023438 0.8192320466041565 L 99.85458374023438 10.57579040527344 L 2.458008289337158 10.62694072723389 Z" stroke="none"/>
          <path d="M 2.958000183105469 0.9991626739501953 L 2.958000183105469 10.12668228149414 L 99.35457611083984 10.07605361938477 L 99.35457611083984 1.317595481872559 L 2.958000183105469 0.9991626739501953 M 1.958000183105469 -0.004151344299316406 L 100.3545761108398 0.3208885192871094 L 100.3545761108398 11.07552814483643 L 1.958000183105469 11.12720775604248 L 1.958000183105469 -0.004151344299316406 Z" stroke="none" fill="#fff"/>
        </g>
        <path id="Path_57" data-name="Path 57" d="M59.036-.028s-18.2,3.3-36.765,24.244S.914,68.542.914,68.542" transform="translate(21.205 25.281)" fill="none" stroke="#fff" stroke-linecap="round" stroke-width="1.5"/>
      </g>
    </g>
  </g>
</svg>
