<svg xmlns="http://www.w3.org/2000/svg" width="1826" height="1426" viewBox="0 0 1826 1426">
  <g id="Group_55" data-name="Group 55" transform="translate(0.129 -0.416)">
    <rect id="Rectangle_74" data-name="Rectangle 74" width="1826" height="1165" rx="10" transform="translate(-0.129 261.416)" fill="#c61928"/>
    <path id="Rectangle_75" data-name="Rectangle 75" d="M10,0H1594a12,12,0,0,1,12,12V1153a12,12,0,0,1-12,12H10a10,10,0,0,1-10-10V10A10,10,0,0,1,10,0Z" transform="translate(-0.129 261.416)" fill="#ff494f"/>
    <rect id="Rectangle_80" data-name="Rectangle 80" width="722" height="541" rx="6" transform="translate(481.871 0.416)" fill="#ff494f"/>
    <rect id="Rectangle_77" data-name="Rectangle 77" width="706.654" height="53.103" rx="5" transform="translate(401.285 484.002) rotate(90)" fill="#fff"/>
    <rect id="Rectangle_81" data-name="Rectangle 81" width="706.654" height="53.103" rx="5" transform="translate(811.599 484.002) rotate(90)" fill="#fff"/>
    <path id="Rectangle_82" data-name="Rectangle 82" d="M3,0H399a3,3,0,0,1,3,3V140a0,0,0,0,1,0,0H0a0,0,0,0,1,0,0V3A3,3,0,0,1,3,0Z" transform="translate(641.871 121.416)" fill="#fff"/>
    <rect id="Rectangle_79" data-name="Rectangle 79" width="706.654" height="53.103" rx="5" transform="translate(1244.707 484.002) rotate(90)" fill="#fff"/>
  </g>
</svg>
