<svg xmlns="http://www.w3.org/2000/svg" width="1582" height="1707" viewBox="0 0 1582 1707">
  <g id="Group_56" data-name="Group 56" transform="translate(0.157 0.411)">
    <path id="Rectangle_75" data-name="Rectangle 75" d="M4,0H1349a4,4,0,0,1,4,4V1237a12,12,0,0,1-12,12H12a12,12,0,0,1-12-12V4A4,4,0,0,1,4,0Z" transform="translate(-0.157 457.589)" fill="#c61928"/>
    <rect id="Rectangle_83" data-name="Rectangle 83" width="63" height="354" rx="2" transform="translate(332.843 -0.411)" fill="#ff494f"/>
    <rect id="Rectangle_84" data-name="Rectangle 84" width="63" height="354" rx="2" transform="translate(644.843 -0.411)" fill="#ff494f"/>
    <rect id="Rectangle_85" data-name="Rectangle 85" width="63" height="354" rx="2" transform="translate(998.843 -0.411)" fill="#ff494f"/>
    <rect id="Rectangle_86" data-name="Rectangle 86" width="625" height="375" rx="6" transform="translate(1206.843 1248.589) rotate(-90)" fill="#c61928"/>
    <path id="Rectangle_87" data-name="Rectangle 87" d="M0,0H143a3,3,0,0,1,3,3V413a3,3,0,0,1-3,3H0a0,0,0,0,1,0,0V0A0,0,0,0,1,0,0Z" transform="translate(1352.843 728.589)" fill="#fff"/>
    <path id="Rectangle_88" data-name="Rectangle 88" d="M4,0H1162a4,4,0,0,1,4,4V1237a12,12,0,0,1-12,12H12a12,12,0,0,1-12-12V4A4,4,0,0,1,4,0Z" transform="translate(-0.157 457.589)" fill="#ff494f"/>
    <rect id="Rectangle_89" data-name="Rectangle 89" width="732.853" height="55.072" rx="5" transform="translate(198.883 741.378) rotate(90)" fill="#fff"/>
  </g>
</svg>
