<svg xmlns="http://www.w3.org/2000/svg" width="2040" height="1697" viewBox="0 0 2040 1697">
  <g id="Group_54" data-name="Group 54" transform="translate(0 -0.164)">
    <rect id="Rectangle_74" data-name="Rectangle 74" width="2040" height="1278" rx="6" transform="translate(0 0.164)" fill="#c61928"/>
    <rect id="Rectangle_75" data-name="Rectangle 75" width="1768" height="1278" rx="6" transform="translate(272 0.164)" fill="#ff494f"/>
    <rect id="Rectangle_76" data-name="Rectangle 76" width="1179.374" height="46.554" rx="5" transform="translate(558.659 273.327)" fill="#fff"/>
    <rect id="Rectangle_77" data-name="Rectangle 77" width="1179.374" height="46.554" rx="5" transform="translate(558.659 614.724)" fill="#fff"/>
    <rect id="Rectangle_78" data-name="Rectangle 78" width="1179.374" height="46.554" rx="5" transform="translate(558.659 956.121)" fill="#fff"/>
    <path id="Polygon_1" data-name="Polygon 1" d="M327.474,2.747a2,2,0,0,1,3.4,0L656.46,528.691a2,2,0,0,1-1.7,3.053H3.59a2,2,0,0,1-1.7-3.053Z" transform="matrix(0.53, -0.848, 0.848, 0.53, 332.597, 1415.383)" fill="#ff494f"/>
  </g>
</svg>
